<?xml version="1.0" encoding="utf-8"?>
<!-- Generator: Adobe Illustrator 24.3.0, SVG Export Plug-In . SVG Version: 6.00 Build 0)  -->
<svg version="1.1" id="レイヤー_1" xmlns="http://www.w3.org/2000/svg" xmlns:xlink="http://www.w3.org/1999/xlink" x="0px"
	 y="0px" viewBox="0 0 100 100" style="enable-background:new 0 0 100 100;" xml:space="preserve">
<style type="text/css">
	.st0{fill:#CE8A8A;}
	.st1{display:none;fill:#FFFFFF;}
	.st2{fill:#FFFFFF;}
</style>
<rect class="st0" width="100" height="100"/>
<path class="st1" d="M50,54.9c5.5,0.1,11,0.8,16.4,2.1c5.8,1.3,11.3,3.7,16.3,7c4.9,3.3,7.4,7,7.4,11v25H10V75c0-4.1,2.5-7.7,7.4-11
	c5-3.3,10.5-5.7,16.3-7C39,55.7,44.5,55,50,54.9z M50,10c5.3,0,10.4,2.1,14,6c3.8,3.7,5.9,8.8,5.8,14.2c0.1,5.3-2.1,10.3-5.8,14
	c-3.7,3.8-8.7,5.9-14,5.8c-5.3,0.1-10.3-2.1-14-5.8c-3.8-3.7-5.9-8.7-5.8-14C30.1,24.8,32.2,19.7,36,16C39.6,12.1,44.7,10,50,10z"/>
<path class="st2" d="M83.4,72C76.2,82.9,64,90,50,90s-26.2-7.1-33.4-18v-3.9c0-3.4,2.1-6.4,6.2-9.2c4.1-2.7,8.7-4.7,13.6-5.8
	c4.5-1.1,9.1-1.7,13.7-1.7c4.6,0,9.2,0.6,13.7,1.7c4.8,1.1,9.4,3.1,13.6,5.8c4.1,2.7,6.2,5.8,6.2,9.2V72z M38.3,18.9
	c-3.2,3.1-4.9,7.4-4.9,11.8c-0.1,4.4,1.7,8.6,4.9,11.7c3.1,3.2,7.3,4.9,11.7,4.9c4.4,0.1,8.6-1.7,11.7-4.9c3.2-3.1,4.9-7.3,4.9-11.7
	c0-4.4-1.7-8.7-4.9-11.8c-3-3.2-7.3-5-11.7-5C45.6,13.8,41.3,15.6,38.3,18.9z"/>
</svg>
