<svg id="レイヤー_1" data-name="レイヤー 1" xmlns="http://www.w3.org/2000/svg" viewBox="0 0 100 100"><defs><style>.cls-1{fill:#fff;}.cls-2{fill:#ce8a8a;}</style></defs><rect class="cls-1" width="100" height="100"/><path class="cls-2" d="M50,54.91A71,71,0,0,1,66.37,57a49.48,49.48,0,0,1,16.26,7Q90,68.94,90,75v25H10V75q0-6.09,7.37-11a49.48,49.48,0,0,1,16.26-7A71,71,0,0,1,50,54.91ZM50,10a19,19,0,0,1,14,6,19.58,19.58,0,0,1,5.84,14.16,19.16,19.16,0,0,1-5.84,14A19.15,19.15,0,0,1,50,50a19.15,19.15,0,0,1-14-5.85,19.16,19.16,0,0,1-5.84-14A19.58,19.58,0,0,1,36,16,19,19,0,0,1,50,10Z"/></svg>